<?xml version='1.0' encoding='utf-8'?>
<svg width="238.70mm" height="260.80mm" viewBox="0.0 0.0 238.70 260.80" xmlns="http://www.w3.org/2000/svg" xmlns:dc="http://purl.org/dc/elements/1.1/" xmlns:cc="http://creativecommons.org/ns#" xmlns:rdf="http://www.w3.org/1999/02/22-rdf-syntax-ns#" xmlns:svg="http://www.w3.org/2000/svg" xmlns:xlink="http://www.w3.org/1999/xlink" xmlns:inkscape="http://www.inkscape.org/namespaces/inkscape">
<!--
ClosedBox - Fully closed box


This box is more of a building block than a finished item.
Use a vector graphics program (like Inkscape) to add holes or adjust the base
plate.

See BasedBox for variant with a base.


Created with Boxes.py (https://festi.info/boxes.py)
Creation date: 2023-11-22 14:06:32
Command line (remove spaces between dashes): boxes ClosedBox - -y=80 - -h=60 - -outside=0 - -thickness=4.0
Url: http://festi.info/boxes.py/ClosedBox?FingerJoint_angle=90.0&FingerJoint_style=rectangular&FingerJoint_surroundingspaces=2.0&FingerJoint_bottom_lip=0.0&FingerJoint_edge_width=1.0&FingerJoint_extra_length=0.0&FingerJoint_finger=2.0&FingerJoint_play=0.0&FingerJoint_space=2.0&FingerJoint_width=1.0&x=100&y=80&h=60&outside=0&thickness=4.0&format=svg&tabs=0.0&qr_code=0&debug=0&labels=0&labels=1&reference=100&inner_corners=loop&burn=0.1&language=de&render=1
Url short: http://festi.info/boxes.py/ClosedBox?y=80&h=60&outside=0&thickness=4.0
SettingsUrl: http://festi.info/boxes.py/ClosedBox?FingerJoint_angle=90.0&FingerJoint_style=rectangular&FingerJoint_surroundingspaces=2.0&FingerJoint_bottom_lip=0.0&FingerJoint_edge_width=1.0&FingerJoint_extra_length=0.0&FingerJoint_finger=2.0&FingerJoint_play=0.0&FingerJoint_space=2.0&FingerJoint_width=1.0&x=100&y=80&h=60&outside=0&thickness=4.0&format=svg&tabs=0.0&qr_code=0&debug=0&labels=0&labels=1&reference=100&inner_corners=loop&burn=0.1&language=de
SettingsUrl short: http://festi.info/boxes.py/ClosedBox?y=80&h=60&outside=0&thickness=4.0
-->
<title>ClosedBox</title>
<metadata>
<rdf:RDF><cc:Work>
<dc:title>Box - ClosedBox</dc:title>
<dc:date>2023-11-22 14:06:32</dc:date>
<dc:source>http://festi.info/boxes.py/ClosedBox?FingerJoint_angle=90.0&amp;FingerJoint_style=rectangular&amp;FingerJoint_surroundingspaces=2.0&amp;FingerJoint_bottom_lip=0.0&amp;FingerJoint_edge_width=1.0&amp;FingerJoint_extra_length=0.0&amp;FingerJoint_finger=2.0&amp;FingerJoint_play=0.0&amp;FingerJoint_space=2.0&amp;FingerJoint_width=1.0&amp;x=100&amp;y=80&amp;h=60&amp;outside=0&amp;thickness=4.0&amp;format=svg&amp;tabs=0.0&amp;qr_code=0&amp;debug=0&amp;labels=0&amp;labels=1&amp;reference=100&amp;inner_corners=loop&amp;burn=0.1&amp;language=de&amp;render=1</dc:source>
<dc:source>http://festi.info/boxes.py/ClosedBox?y=80&amp;h=60&amp;outside=0&amp;thickness=4.0</dc:source>
<dc:description>Fully closed box

This box is more of a building block than a finished item.
Use a vector graphics program (like Inkscape) to add holes or adjust the base
plate.

See BasedBox for variant with a base.

Created with Boxes.py (https://festi.info/boxes.py)
Command line: boxes ClosedBox --FingerJoint_angle=90.0 --FingerJoint_style=rectangular --FingerJoint_surroundingspaces=2.0 --FingerJoint_bottom_lip=0.0 --FingerJoint_edge_width=1.0 --FingerJoint_extra_length=0.0 --FingerJoint_finger=2.0 --FingerJoint_play=0.0 --FingerJoint_space=2.0 --FingerJoint_width=1.0 --x=100 --y=80 --h=60 --outside=0 --thickness=4.0 --format=svg --tabs=0.0 --qr_code=0 --debug=0 --labels=0 --labels=1 --reference=100 --inner_corners=loop --burn=0.1
Command line short: boxes ClosedBox --y=80 --h=60 --outside=0 --thickness=4.0
Url: http://festi.info/boxes.py/ClosedBox?FingerJoint_angle=90.0&amp;FingerJoint_style=rectangular&amp;FingerJoint_surroundingspaces=2.0&amp;FingerJoint_bottom_lip=0.0&amp;FingerJoint_edge_width=1.0&amp;FingerJoint_extra_length=0.0&amp;FingerJoint_finger=2.0&amp;FingerJoint_play=0.0&amp;FingerJoint_space=2.0&amp;FingerJoint_width=1.0&amp;x=100&amp;y=80&amp;h=60&amp;outside=0&amp;thickness=4.0&amp;format=svg&amp;tabs=0.0&amp;qr_code=0&amp;debug=0&amp;labels=0&amp;labels=1&amp;reference=100&amp;inner_corners=loop&amp;burn=0.1&amp;language=de&amp;render=1
Url short: http://festi.info/boxes.py/ClosedBox?y=80&amp;h=60&amp;outside=0&amp;thickness=4.0
SettingsUrl: http://festi.info/boxes.py/ClosedBox?FingerJoint_angle=90.0&amp;FingerJoint_style=rectangular&amp;FingerJoint_surroundingspaces=2.0&amp;FingerJoint_bottom_lip=0.0&amp;FingerJoint_edge_width=1.0&amp;FingerJoint_extra_length=0.0&amp;FingerJoint_finger=2.0&amp;FingerJoint_play=0.0&amp;FingerJoint_space=2.0&amp;FingerJoint_width=1.0&amp;x=100&amp;y=80&amp;h=60&amp;outside=0&amp;thickness=4.0&amp;format=svg&amp;tabs=0.0&amp;qr_code=0&amp;debug=0&amp;labels=0&amp;labels=1&amp;reference=100&amp;inner_corners=loop&amp;burn=0.1&amp;language=de
SettingsUrl short: http://festi.info/boxes.py/ClosedBox?y=80&amp;h=60&amp;outside=0&amp;thickness=4.0
</dc:description>
</cc:Work></rdf:RDF></metadata>
<g id="p-0" style="fill:none;stroke-linecap:round;stroke-linejoin:round;">
  <path d="M 10.400 250.800 H 110.400 V 240.800 H 10.400 V 250.800 Z" stroke="rgb(0,0,0)" stroke-width="0.20" />
  <text transform="matrix( 1.000 0.000 0.000 1.000 60.400 241.800 )" style="font-family: sans-serif ; font-weight: normal; font-style: normal; fill: rgb(255,0,0)" font-size="8px" text-anchor="middle" dominant-baseline="hanging">100mm, burn:0.10mm</text>
</g>
<g id="p-1" style="fill:none;stroke-linecap:round;stroke-linejoin:round;">
  <text transform="matrix( 1.000 0.000 0.000 1.000 64.400 202.600 )" style="font-family: sans-serif ; font-weight: normal; font-style: normal; fill: rgb(255,0,0)" font-size="4px" text-anchor="middle" dominant-baseline="hanging">Wall 1</text><path d="M 14.400 238.600 H 28.400 C 28.455 238.600 28.500 238.555 28.500 238.500 V 234.600 C 28.500 234.500 28.400 234.600 28.500 234.600 H 36.300 C 36.400 234.600 36.300 234.500 36.300 234.600 V 238.500 C 36.300 238.555 36.345 238.600 36.400 238.600 H 44.400 C 44.455 238.600 44.500 238.555 44.500 238.500 V 234.600 C 44.500 234.500 44.400 234.600 44.500 234.600 H 52.300 C 52.400 234.600 52.300 234.500 52.300 234.600 V 238.500 C 52.300 238.555 52.345 238.600 52.400 238.600 H 60.400 C 60.455 238.600 60.500 238.555 60.500 238.500 V 234.600 C 60.500 234.500 60.400 234.600 60.500 234.600 H 68.300 C 68.400 234.600 68.300 234.500 68.300 234.600 V 238.500 C 68.300 238.555 68.345 238.600 68.400 238.600 H 76.400 C 76.455 238.600 76.500 238.555 76.500 238.500 V 234.600 C 76.500 234.500 76.400 234.600 76.500 234.600 H 84.300 C 84.400 234.600 84.300 234.500 84.300 234.600 V 238.500 C 84.300 238.555 84.345 238.600 84.400 238.600 H 92.400 C 92.455 238.600 92.500 238.555 92.500 238.500 V 234.600 C 92.500 234.500 92.400 234.600 92.500 234.600 H 100.300 C 100.400 234.600 100.300 234.500 100.300 234.600 V 238.500 C 100.300 238.555 100.345 238.600 100.400 238.600 H 114.400 H 118.400 C 118.455 238.600 118.500 238.555 118.500 238.500 V 234.500 V 224.500 C 118.500 224.445 118.455 224.400 118.400 224.400 H 114.500 C 114.400 224.400 114.500 224.500 114.500 224.400 V 216.600 C 114.500 216.500 114.400 216.600 114.500 216.600 H 118.400 C 118.455 216.600 118.500 216.555 118.500 216.500 V 208.500 C 118.500 208.445 118.455 208.400 118.400 208.400 H 114.500 C 114.400 208.400 114.500 208.500 114.500 208.400 V 200.600 C 114.500 200.500 114.400 200.600 114.500 200.600 H 118.400 C 118.455 200.600 118.500 200.555 118.500 200.500 V 192.500 C 118.500 192.445 118.455 192.400 118.400 192.400 H 114.500 C 114.400 192.400 114.500 192.500 114.500 192.400 V 184.600 C 114.500 184.500 114.400 184.600 114.500 184.600 H 118.400 C 118.455 184.600 118.500 184.555 118.500 184.500 V 174.500 V 170.500 C 118.500 170.445 118.455 170.400 118.400 170.400 H 114.400 H 100.400 C 100.345 170.400 100.300 170.445 100.300 170.500 V 174.400 C 100.300 174.500 100.400 174.400 100.300 174.400 H 92.500 C 92.400 174.400 92.500 174.500 92.500 174.400 V 170.500 C 92.500 170.445 92.455 170.400 92.400 170.400 H 84.400 C 84.345 170.400 84.300 170.445 84.300 170.500 V 174.400 C 84.300 174.500 84.400 174.400 84.300 174.400 H 76.500 C 76.400 174.400 76.500 174.500 76.500 174.400 V 170.500 C 76.500 170.445 76.455 170.400 76.400 170.400 H 68.400 C 68.345 170.400 68.300 170.445 68.300 170.500 V 174.400 C 68.300 174.500 68.400 174.400 68.300 174.400 H 60.500 C 60.400 174.400 60.500 174.500 60.500 174.400 V 170.500 C 60.500 170.445 60.455 170.400 60.400 170.400 H 52.400 C 52.345 170.400 52.300 170.445 52.300 170.500 V 174.400 C 52.300 174.500 52.400 174.400 52.300 174.400 H 44.500 C 44.400 174.400 44.500 174.500 44.500 174.400 V 170.500 C 44.500 170.445 44.455 170.400 44.400 170.400 H 36.400 C 36.345 170.400 36.300 170.445 36.300 170.500 V 174.400 C 36.300 174.500 36.400 174.400 36.300 174.400 H 28.500 C 28.400 174.400 28.500 174.500 28.500 174.400 V 170.500 C 28.500 170.445 28.455 170.400 28.400 170.400 H 14.400 H 10.400 C 10.345 170.400 10.300 170.445 10.300 170.500 V 174.500 V 184.500 C 10.300 184.555 10.345 184.600 10.400 184.600 H 14.300 C 14.400 184.600 14.300 184.500 14.300 184.600 V 192.400 C 14.300 192.500 14.400 192.400 14.300 192.400 H 10.400 C 10.345 192.400 10.300 192.445 10.300 192.500 V 200.500 C 10.300 200.555 10.345 200.600 10.400 200.600 H 14.300 C 14.400 200.600 14.300 200.500 14.300 200.600 V 208.400 C 14.300 208.500 14.400 208.400 14.300 208.400 H 10.400 C 10.345 208.400 10.300 208.445 10.300 208.500 V 216.500 C 10.300 216.555 10.345 216.600 10.400 216.600 H 14.300 C 14.400 216.600 14.300 216.500 14.300 216.600 V 224.400 C 14.300 224.500 14.400 224.400 14.300 224.400 H 10.400 C 10.345 224.400 10.300 224.445 10.300 224.500 V 234.500 V 238.500 C 10.300 238.555 10.345 238.600 10.400 238.600 H 14.400" stroke="rgb(0,0,0)" stroke-width="0.20" />
</g>
<g id="p-2" style="fill:none;stroke-linecap:round;stroke-linejoin:round;">
  <text transform="matrix( 1.000 0.000 0.000 1.000 164.600 202.600 )" style="font-family: sans-serif ; font-weight: normal; font-style: normal; fill: rgb(255,0,0)" font-size="4px" text-anchor="middle" dominant-baseline="hanging">Wall 2</text><path d="M 124.600 238.600 H 136.600 C 136.655 238.600 136.700 238.555 136.700 238.500 V 234.600 C 136.700 234.500 136.600 234.600 136.700 234.600 H 144.500 C 144.600 234.600 144.500 234.500 144.500 234.600 V 238.500 C 144.500 238.555 144.545 238.600 144.600 238.600 H 152.600 C 152.655 238.600 152.700 238.555 152.700 238.500 V 234.600 C 152.700 234.500 152.600 234.600 152.700 234.600 H 160.500 C 160.600 234.600 160.500 234.500 160.500 234.600 V 238.500 C 160.500 238.555 160.545 238.600 160.600 238.600 H 168.600 C 168.655 238.600 168.700 238.555 168.700 238.500 V 234.600 C 168.700 234.500 168.600 234.600 168.700 234.600 H 176.500 C 176.600 234.600 176.500 234.500 176.500 234.600 V 238.500 C 176.500 238.555 176.545 238.600 176.600 238.600 H 184.600 C 184.655 238.600 184.700 238.555 184.700 238.500 V 234.600 C 184.700 234.500 184.600 234.600 184.700 234.600 H 192.500 C 192.600 234.600 192.500 234.500 192.500 234.600 V 238.500 C 192.500 238.555 192.545 238.600 192.600 238.600 H 204.600 C 204.655 238.600 204.700 238.555 204.700 238.500 V 234.500 V 224.600 C 204.700 224.500 204.600 224.600 204.700 224.600 H 208.600 C 208.655 224.600 208.700 224.555 208.700 224.500 V 216.500 C 208.700 216.445 208.655 216.400 208.600 216.400 H 204.700 C 204.600 216.400 204.700 216.500 204.700 216.400 V 208.600 C 204.700 208.500 204.600 208.600 204.700 208.600 H 208.600 C 208.655 208.600 208.700 208.555 208.700 208.500 V 200.500 C 208.700 200.445 208.655 200.400 208.600 200.400 H 204.700 C 204.600 200.400 204.700 200.500 204.700 200.400 V 192.600 C 204.700 192.500 204.600 192.600 204.700 192.600 H 208.600 C 208.655 192.600 208.700 192.555 208.700 192.500 V 184.500 C 208.700 184.445 208.655 184.400 208.600 184.400 H 204.700 C 204.600 184.400 204.700 184.500 204.700 184.400 V 174.500 V 170.500 C 204.700 170.445 204.655 170.400 204.600 170.400 H 192.600 C 192.545 170.400 192.500 170.445 192.500 170.500 V 174.400 C 192.500 174.500 192.600 174.400 192.500 174.400 H 184.700 C 184.600 174.400 184.700 174.500 184.700 174.400 V 170.500 C 184.700 170.445 184.655 170.400 184.600 170.400 H 176.600 C 176.545 170.400 176.500 170.445 176.500 170.500 V 174.400 C 176.500 174.500 176.600 174.400 176.500 174.400 H 168.700 C 168.600 174.400 168.700 174.500 168.700 174.400 V 170.500 C 168.700 170.445 168.655 170.400 168.600 170.400 H 160.600 C 160.545 170.400 160.500 170.445 160.500 170.500 V 174.400 C 160.500 174.500 160.600 174.400 160.500 174.400 H 152.700 C 152.600 174.400 152.700 174.500 152.700 174.400 V 170.500 C 152.700 170.445 152.655 170.400 152.600 170.400 H 144.600 C 144.545 170.400 144.500 170.445 144.500 170.500 V 174.400 C 144.500 174.500 144.600 174.400 144.500 174.400 H 136.700 C 136.600 174.400 136.700 174.500 136.700 174.400 V 170.500 C 136.700 170.445 136.655 170.400 136.600 170.400 H 124.600 C 124.545 170.400 124.500 170.445 124.500 170.500 V 174.500 V 184.400 C 124.500 184.500 124.600 184.400 124.500 184.400 H 120.600 C 120.545 184.400 120.500 184.445 120.500 184.500 V 192.500 C 120.500 192.555 120.545 192.600 120.600 192.600 H 124.500 C 124.600 192.600 124.500 192.500 124.500 192.600 V 200.400 C 124.500 200.500 124.600 200.400 124.500 200.400 H 120.600 C 120.545 200.400 120.500 200.445 120.500 200.500 V 208.500 C 120.500 208.555 120.545 208.600 120.600 208.600 H 124.500 C 124.600 208.600 124.500 208.500 124.500 208.600 V 216.400 C 124.500 216.500 124.600 216.400 124.500 216.400 H 120.600 C 120.545 216.400 120.500 216.445 120.500 216.500 V 224.500 C 120.500 224.555 120.545 224.600 120.600 224.600 H 124.500 C 124.600 224.600 124.500 224.500 124.500 224.600 V 234.500 V 238.500 C 124.500 238.555 124.545 238.600 124.600 238.600" stroke="rgb(0,0,0)" stroke-width="0.20" />
</g>
<g id="p-3" style="fill:none;stroke-linecap:round;stroke-linejoin:round;">
  <text transform="matrix( 1.000 0.000 0.000 1.000 164.600 132.400 )" style="font-family: sans-serif ; font-weight: normal; font-style: normal; fill: rgb(255,0,0)" font-size="4px" text-anchor="middle" dominant-baseline="hanging">Wall 4</text><path d="M 124.600 168.400 H 136.600 C 136.655 168.400 136.700 168.355 136.700 168.300 V 164.400 C 136.700 164.300 136.600 164.400 136.700 164.400 H 144.500 C 144.600 164.400 144.500 164.300 144.500 164.400 V 168.300 C 144.500 168.355 144.545 168.400 144.600 168.400 H 152.600 C 152.655 168.400 152.700 168.355 152.700 168.300 V 164.400 C 152.700 164.300 152.600 164.400 152.700 164.400 H 160.500 C 160.600 164.400 160.500 164.300 160.500 164.400 V 168.300 C 160.500 168.355 160.545 168.400 160.600 168.400 H 168.600 C 168.655 168.400 168.700 168.355 168.700 168.300 V 164.400 C 168.700 164.300 168.600 164.400 168.700 164.400 H 176.500 C 176.600 164.400 176.500 164.300 176.500 164.400 V 168.300 C 176.500 168.355 176.545 168.400 176.600 168.400 H 184.600 C 184.655 168.400 184.700 168.355 184.700 168.300 V 164.400 C 184.700 164.300 184.600 164.400 184.700 164.400 H 192.500 C 192.600 164.400 192.500 164.300 192.500 164.400 V 168.300 C 192.500 168.355 192.545 168.400 192.600 168.400 H 204.600 C 204.655 168.400 204.700 168.355 204.700 168.300 V 164.300 V 154.400 C 204.700 154.300 204.600 154.400 204.700 154.400 H 208.600 C 208.655 154.400 208.700 154.355 208.700 154.300 V 146.300 C 208.700 146.245 208.655 146.200 208.600 146.200 H 204.700 C 204.600 146.200 204.700 146.300 204.700 146.200 V 138.400 C 204.700 138.300 204.600 138.400 204.700 138.400 H 208.600 C 208.655 138.400 208.700 138.355 208.700 138.300 V 130.300 C 208.700 130.245 208.655 130.200 208.600 130.200 H 204.700 C 204.600 130.200 204.700 130.300 204.700 130.200 V 122.400 C 204.700 122.300 204.600 122.400 204.700 122.400 H 208.600 C 208.655 122.400 208.700 122.355 208.700 122.300 V 114.300 C 208.700 114.245 208.655 114.200 208.600 114.200 H 204.700 C 204.600 114.200 204.700 114.300 204.700 114.200 V 104.300 V 100.300 C 204.700 100.245 204.655 100.200 204.600 100.200 H 192.600 C 192.545 100.200 192.500 100.245 192.500 100.300 V 104.200 C 192.500 104.300 192.600 104.200 192.500 104.200 H 184.700 C 184.600 104.200 184.700 104.300 184.700 104.200 V 100.300 C 184.700 100.245 184.655 100.200 184.600 100.200 H 176.600 C 176.545 100.200 176.500 100.245 176.500 100.300 V 104.200 C 176.500 104.300 176.600 104.200 176.500 104.200 H 168.700 C 168.600 104.200 168.700 104.300 168.700 104.200 V 100.300 C 168.700 100.245 168.655 100.200 168.600 100.200 H 160.600 C 160.545 100.200 160.500 100.245 160.500 100.300 V 104.200 C 160.500 104.300 160.600 104.200 160.500 104.200 H 152.700 C 152.600 104.200 152.700 104.300 152.700 104.200 V 100.300 C 152.700 100.245 152.655 100.200 152.600 100.200 H 144.600 C 144.545 100.200 144.500 100.245 144.500 100.300 V 104.200 C 144.500 104.300 144.600 104.200 144.500 104.200 H 136.700 C 136.600 104.200 136.700 104.300 136.700 104.200 V 100.300 C 136.700 100.245 136.655 100.200 136.600 100.200 H 124.600 C 124.545 100.200 124.500 100.245 124.500 100.300 V 104.300 V 114.200 C 124.500 114.300 124.600 114.200 124.500 114.200 H 120.600 C 120.545 114.200 120.500 114.245 120.500 114.300 V 122.300 C 120.500 122.355 120.545 122.400 120.600 122.400 H 124.500 C 124.600 122.400 124.500 122.300 124.500 122.400 V 130.200 C 124.500 130.300 124.600 130.200 124.500 130.200 H 120.600 C 120.545 130.200 120.500 130.245 120.500 130.300 V 138.300 C 120.500 138.355 120.545 138.400 120.600 138.400 H 124.500 C 124.600 138.400 124.500 138.300 124.500 138.400 V 146.200 C 124.500 146.300 124.600 146.200 124.500 146.200 H 120.600 C 120.545 146.200 120.500 146.245 120.500 146.300 V 154.300 C 120.500 154.355 120.545 154.400 120.600 154.400 H 124.500 C 124.600 154.400 124.500 154.300 124.500 154.400 V 164.300 V 168.300 C 124.500 168.355 124.545 168.400 124.600 168.400" stroke="rgb(0,0,0)" stroke-width="0.20" />
</g>
<g id="p-4" style="fill:none;stroke-linecap:round;stroke-linejoin:round;">
  <text transform="matrix( 1.000 0.000 0.000 1.000 64.400 132.400 )" style="font-family: sans-serif ; font-weight: normal; font-style: normal; fill: rgb(255,0,0)" font-size="4px" text-anchor="middle" dominant-baseline="hanging">Wall 3</text><path d="M 14.400 168.400 H 28.400 C 28.455 168.400 28.500 168.355 28.500 168.300 V 164.400 C 28.500 164.300 28.400 164.400 28.500 164.400 H 36.300 C 36.400 164.400 36.300 164.300 36.300 164.400 V 168.300 C 36.300 168.355 36.345 168.400 36.400 168.400 H 44.400 C 44.455 168.400 44.500 168.355 44.500 168.300 V 164.400 C 44.500 164.300 44.400 164.400 44.500 164.400 H 52.300 C 52.400 164.400 52.300 164.300 52.300 164.400 V 168.300 C 52.300 168.355 52.345 168.400 52.400 168.400 H 60.400 C 60.455 168.400 60.500 168.355 60.500 168.300 V 164.400 C 60.500 164.300 60.400 164.400 60.500 164.400 H 68.300 C 68.400 164.400 68.300 164.300 68.300 164.400 V 168.300 C 68.300 168.355 68.345 168.400 68.400 168.400 H 76.400 C 76.455 168.400 76.500 168.355 76.500 168.300 V 164.400 C 76.500 164.300 76.400 164.400 76.500 164.400 H 84.300 C 84.400 164.400 84.300 164.300 84.300 164.400 V 168.300 C 84.300 168.355 84.345 168.400 84.400 168.400 H 92.400 C 92.455 168.400 92.500 168.355 92.500 168.300 V 164.400 C 92.500 164.300 92.400 164.400 92.500 164.400 H 100.300 C 100.400 164.400 100.300 164.300 100.300 164.400 V 168.300 C 100.300 168.355 100.345 168.400 100.400 168.400 H 114.400 H 118.400 C 118.455 168.400 118.500 168.355 118.500 168.300 V 164.300 V 154.300 C 118.500 154.245 118.455 154.200 118.400 154.200 H 114.500 C 114.400 154.200 114.500 154.300 114.500 154.200 V 146.400 C 114.500 146.300 114.400 146.400 114.500 146.400 H 118.400 C 118.455 146.400 118.500 146.355 118.500 146.300 V 138.300 C 118.500 138.245 118.455 138.200 118.400 138.200 H 114.500 C 114.400 138.200 114.500 138.300 114.500 138.200 V 130.400 C 114.500 130.300 114.400 130.400 114.500 130.400 H 118.400 C 118.455 130.400 118.500 130.355 118.500 130.300 V 122.300 C 118.500 122.245 118.455 122.200 118.400 122.200 H 114.500 C 114.400 122.200 114.500 122.300 114.500 122.200 V 114.400 C 114.500 114.300 114.400 114.400 114.500 114.400 H 118.400 C 118.455 114.400 118.500 114.355 118.500 114.300 V 104.300 V 100.300 C 118.500 100.245 118.455 100.200 118.400 100.200 H 114.400 H 100.400 C 100.345 100.200 100.300 100.245 100.300 100.300 V 104.200 C 100.300 104.300 100.400 104.200 100.300 104.200 H 92.500 C 92.400 104.200 92.500 104.300 92.500 104.200 V 100.300 C 92.500 100.245 92.455 100.200 92.400 100.200 H 84.400 C 84.345 100.200 84.300 100.245 84.300 100.300 V 104.200 C 84.300 104.300 84.400 104.200 84.300 104.200 H 76.500 C 76.400 104.200 76.500 104.300 76.500 104.200 V 100.300 C 76.500 100.245 76.455 100.200 76.400 100.200 H 68.400 C 68.345 100.200 68.300 100.245 68.300 100.300 V 104.200 C 68.300 104.300 68.400 104.200 68.300 104.200 H 60.500 C 60.400 104.200 60.500 104.300 60.500 104.200 V 100.300 C 60.500 100.245 60.455 100.200 60.400 100.200 H 52.400 C 52.345 100.200 52.300 100.245 52.300 100.300 V 104.200 C 52.300 104.300 52.400 104.200 52.300 104.200 H 44.500 C 44.400 104.200 44.500 104.300 44.500 104.200 V 100.300 C 44.500 100.245 44.455 100.200 44.400 100.200 H 36.400 C 36.345 100.200 36.300 100.245 36.300 100.300 V 104.200 C 36.300 104.300 36.400 104.200 36.300 104.200 H 28.500 C 28.400 104.200 28.500 104.300 28.500 104.200 V 100.300 C 28.500 100.245 28.455 100.200 28.400 100.200 H 14.400 H 10.400 C 10.345 100.200 10.300 100.245 10.300 100.300 V 104.300 V 114.300 C 10.300 114.355 10.345 114.400 10.400 114.400 H 14.300 C 14.400 114.400 14.300 114.300 14.300 114.400 V 122.200 C 14.300 122.300 14.400 122.200 14.300 122.200 H 10.400 C 10.345 122.200 10.300 122.245 10.300 122.300 V 130.300 C 10.300 130.355 10.345 130.400 10.400 130.400 H 14.300 C 14.400 130.400 14.300 130.300 14.300 130.400 V 138.200 C 14.300 138.300 14.400 138.200 14.300 138.200 H 10.400 C 10.345 138.200 10.300 138.245 10.300 138.300 V 146.300 C 10.300 146.355 10.345 146.400 10.400 146.400 H 14.300 C 14.400 146.400 14.300 146.300 14.300 146.400 V 154.200 C 14.300 154.300 14.400 154.200 14.300 154.200 H 10.400 C 10.345 154.200 10.300 154.245 10.300 154.300 V 164.300 V 168.300 C 10.300 168.355 10.345 168.400 10.400 168.400 H 14.400" stroke="rgb(0,0,0)" stroke-width="0.20" />
</g>
<g id="p-5" style="fill:none;stroke-linecap:round;stroke-linejoin:round;">
  <text transform="matrix( 1.000 0.000 0.000 1.000 64.400 52.200 )" style="font-family: sans-serif ; font-weight: normal; font-style: normal; fill: rgb(255,0,0)" font-size="4px" text-anchor="middle" dominant-baseline="hanging">Top</text><path d="M 14.400 94.200 H 28.300 C 28.400 94.200 28.300 94.100 28.300 94.200 V 98.100 C 28.300 98.155 28.345 98.200 28.400 98.200 H 36.400 C 36.455 98.200 36.500 98.155 36.500 98.100 V 94.200 C 36.500 94.100 36.400 94.200 36.500 94.200 H 44.300 C 44.400 94.200 44.300 94.100 44.300 94.200 V 98.100 C 44.300 98.155 44.345 98.200 44.400 98.200 H 52.400 C 52.455 98.200 52.500 98.155 52.500 98.100 V 94.200 C 52.500 94.100 52.400 94.200 52.500 94.200 H 60.300 C 60.400 94.200 60.300 94.100 60.300 94.200 V 98.100 C 60.300 98.155 60.345 98.200 60.400 98.200 H 68.400 C 68.455 98.200 68.500 98.155 68.500 98.100 V 94.200 C 68.500 94.100 68.400 94.200 68.500 94.200 H 76.300 C 76.400 94.200 76.300 94.100 76.300 94.200 V 98.100 C 76.300 98.155 76.345 98.200 76.400 98.200 H 84.400 C 84.455 98.200 84.500 98.155 84.500 98.100 V 94.200 C 84.500 94.100 84.400 94.200 84.500 94.200 H 92.300 C 92.400 94.200 92.300 94.100 92.300 94.200 V 98.100 C 92.300 98.155 92.345 98.200 92.400 98.200 H 100.400 C 100.455 98.200 100.500 98.155 100.500 98.100 V 94.200 C 100.500 94.100 100.400 94.200 100.500 94.200 H 114.400 C 114.455 94.200 114.500 94.155 114.500 94.100 V 82.200 C 114.500 82.100 114.400 82.200 114.500 82.200 H 118.400 C 118.455 82.200 118.500 82.155 118.500 82.100 V 74.100 C 118.500 74.045 118.455 74.000 118.400 74.000 H 114.500 C 114.400 74.000 114.500 74.100 114.500 74.000 V 66.200 C 114.500 66.100 114.400 66.200 114.500 66.200 H 118.400 C 118.455 66.200 118.500 66.155 118.500 66.100 V 58.100 C 118.500 58.045 118.455 58.000 118.400 58.000 H 114.500 C 114.400 58.000 114.500 58.100 114.500 58.000 V 50.200 C 114.500 50.100 114.400 50.200 114.500 50.200 H 118.400 C 118.455 50.200 118.500 50.155 118.500 50.100 V 42.100 C 118.500 42.045 118.455 42.000 118.400 42.000 H 114.500 C 114.400 42.000 114.500 42.100 114.500 42.000 V 34.200 C 114.500 34.100 114.400 34.200 114.500 34.200 H 118.400 C 118.455 34.200 118.500 34.155 118.500 34.100 V 26.100 C 118.500 26.045 118.455 26.000 118.400 26.000 H 114.500 C 114.400 26.000 114.500 26.100 114.500 26.000 V 14.100 C 114.500 14.045 114.455 14.000 114.400 14.000 H 100.500 C 100.400 14.000 100.500 14.100 100.500 14.000 V 10.100 C 100.500 10.045 100.455 10.000 100.400 10.000 H 92.400 C 92.345 10.000 92.300 10.045 92.300 10.100 V 14.000 C 92.300 14.100 92.400 14.000 92.300 14.000 H 84.500 C 84.400 14.000 84.500 14.100 84.500 14.000 V 10.100 C 84.500 10.045 84.455 10.000 84.400 10.000 H 76.400 C 76.345 10.000 76.300 10.045 76.300 10.100 V 14.000 C 76.300 14.100 76.400 14.000 76.300 14.000 H 68.500 C 68.400 14.000 68.500 14.100 68.500 14.000 V 10.100 C 68.500 10.045 68.455 10.000 68.400 10.000 H 60.400 C 60.345 10.000 60.300 10.045 60.300 10.100 V 14.000 C 60.300 14.100 60.400 14.000 60.300 14.000 H 52.500 C 52.400 14.000 52.500 14.100 52.500 14.000 V 10.100 C 52.500 10.045 52.455 10.000 52.400 10.000 H 44.400 C 44.345 10.000 44.300 10.045 44.300 10.100 V 14.000 C 44.300 14.100 44.400 14.000 44.300 14.000 H 36.500 C 36.400 14.000 36.500 14.100 36.500 14.000 V 10.100 C 36.500 10.045 36.455 10.000 36.400 10.000 H 28.400 C 28.345 10.000 28.300 10.045 28.300 10.100 V 14.000 C 28.300 14.100 28.400 14.000 28.300 14.000 H 14.400 C 14.345 14.000 14.300 14.045 14.300 14.100 V 26.000 C 14.300 26.100 14.400 26.000 14.300 26.000 H 10.400 C 10.345 26.000 10.300 26.045 10.300 26.100 V 34.100 C 10.300 34.155 10.345 34.200 10.400 34.200 H 14.300 C 14.400 34.200 14.300 34.100 14.300 34.200 V 42.000 C 14.300 42.100 14.400 42.000 14.300 42.000 H 10.400 C 10.345 42.000 10.300 42.045 10.300 42.100 V 50.100 C 10.300 50.155 10.345 50.200 10.400 50.200 H 14.300 C 14.400 50.200 14.300 50.100 14.300 50.200 V 58.000 C 14.300 58.100 14.400 58.000 14.300 58.000 H 10.400 C 10.345 58.000 10.300 58.045 10.300 58.100 V 66.100 C 10.300 66.155 10.345 66.200 10.400 66.200 H 14.300 C 14.400 66.200 14.300 66.100 14.300 66.200 V 74.000 C 14.300 74.100 14.400 74.000 14.300 74.000 H 10.400 C 10.345 74.000 10.300 74.045 10.300 74.100 V 82.100 C 10.300 82.155 10.345 82.200 10.400 82.200 H 14.300 C 14.400 82.200 14.300 82.100 14.300 82.200 V 94.100 C 14.300 94.155 14.345 94.200 14.400 94.200" stroke="rgb(0,0,0)" stroke-width="0.20" />
</g>
<g id="p-6" style="fill:none;stroke-linecap:round;stroke-linejoin:round;">
  <text transform="matrix( 1.000 0.000 0.000 1.000 174.600 52.200 )" style="font-family: sans-serif ; font-weight: normal; font-style: normal; fill: rgb(255,0,0)" font-size="4px" text-anchor="middle" dominant-baseline="hanging">Bottom</text><path d="M 124.600 94.200 H 138.500 C 138.600 94.200 138.500 94.100 138.500 94.200 V 98.100 C 138.500 98.155 138.545 98.200 138.600 98.200 H 146.600 C 146.655 98.200 146.700 98.155 146.700 98.100 V 94.200 C 146.700 94.100 146.600 94.200 146.700 94.200 H 154.500 C 154.600 94.200 154.500 94.100 154.500 94.200 V 98.100 C 154.500 98.155 154.545 98.200 154.600 98.200 H 162.600 C 162.655 98.200 162.700 98.155 162.700 98.100 V 94.200 C 162.700 94.100 162.600 94.200 162.700 94.200 H 170.500 C 170.600 94.200 170.500 94.100 170.500 94.200 V 98.100 C 170.500 98.155 170.545 98.200 170.600 98.200 H 178.600 C 178.655 98.200 178.700 98.155 178.700 98.100 V 94.200 C 178.700 94.100 178.600 94.200 178.700 94.200 H 186.500 C 186.600 94.200 186.500 94.100 186.500 94.200 V 98.100 C 186.500 98.155 186.545 98.200 186.600 98.200 H 194.600 C 194.655 98.200 194.700 98.155 194.700 98.100 V 94.200 C 194.700 94.100 194.600 94.200 194.700 94.200 H 202.500 C 202.600 94.200 202.500 94.100 202.500 94.200 V 98.100 C 202.500 98.155 202.545 98.200 202.600 98.200 H 210.600 C 210.655 98.200 210.700 98.155 210.700 98.100 V 94.200 C 210.700 94.100 210.600 94.200 210.700 94.200 H 224.600 C 224.655 94.200 224.700 94.155 224.700 94.100 V 82.200 C 224.700 82.100 224.600 82.200 224.700 82.200 H 228.600 C 228.655 82.200 228.700 82.155 228.700 82.100 V 74.100 C 228.700 74.045 228.655 74.000 228.600 74.000 H 224.700 C 224.600 74.000 224.700 74.100 224.700 74.000 V 66.200 C 224.700 66.100 224.600 66.200 224.700 66.200 H 228.600 C 228.655 66.200 228.700 66.155 228.700 66.100 V 58.100 C 228.700 58.045 228.655 58.000 228.600 58.000 H 224.700 C 224.600 58.000 224.700 58.100 224.700 58.000 V 50.200 C 224.700 50.100 224.600 50.200 224.700 50.200 H 228.600 C 228.655 50.200 228.700 50.155 228.700 50.100 V 42.100 C 228.700 42.045 228.655 42.000 228.600 42.000 H 224.700 C 224.600 42.000 224.700 42.100 224.700 42.000 V 34.200 C 224.700 34.100 224.600 34.200 224.700 34.200 H 228.600 C 228.655 34.200 228.700 34.155 228.700 34.100 V 26.100 C 228.700 26.045 228.655 26.000 228.600 26.000 H 224.700 C 224.600 26.000 224.700 26.100 224.700 26.000 V 14.100 C 224.700 14.045 224.655 14.000 224.600 14.000 H 210.700 C 210.600 14.000 210.700 14.100 210.700 14.000 V 10.100 C 210.700 10.045 210.655 10.000 210.600 10.000 H 202.600 C 202.545 10.000 202.500 10.045 202.500 10.100 V 14.000 C 202.500 14.100 202.600 14.000 202.500 14.000 H 194.700 C 194.600 14.000 194.700 14.100 194.700 14.000 V 10.100 C 194.700 10.045 194.655 10.000 194.600 10.000 H 186.600 C 186.545 10.000 186.500 10.045 186.500 10.100 V 14.000 C 186.500 14.100 186.600 14.000 186.500 14.000 H 178.700 C 178.600 14.000 178.700 14.100 178.700 14.000 V 10.100 C 178.700 10.045 178.655 10.000 178.600 10.000 H 170.600 C 170.545 10.000 170.500 10.045 170.500 10.100 V 14.000 C 170.500 14.100 170.600 14.000 170.500 14.000 H 162.700 C 162.600 14.000 162.700 14.100 162.700 14.000 V 10.100 C 162.700 10.045 162.655 10.000 162.600 10.000 H 154.600 C 154.545 10.000 154.500 10.045 154.500 10.100 V 14.000 C 154.500 14.100 154.600 14.000 154.500 14.000 H 146.700 C 146.600 14.000 146.700 14.100 146.700 14.000 V 10.100 C 146.700 10.045 146.655 10.000 146.600 10.000 H 138.600 C 138.545 10.000 138.500 10.045 138.500 10.100 V 14.000 C 138.500 14.100 138.600 14.000 138.500 14.000 H 124.600 C 124.545 14.000 124.500 14.045 124.500 14.100 V 26.000 C 124.500 26.100 124.600 26.000 124.500 26.000 H 120.600 C 120.545 26.000 120.500 26.045 120.500 26.100 V 34.100 C 120.500 34.155 120.545 34.200 120.600 34.200 H 124.500 C 124.600 34.200 124.500 34.100 124.500 34.200 V 42.000 C 124.500 42.100 124.600 42.000 124.500 42.000 H 120.600 C 120.545 42.000 120.500 42.045 120.500 42.100 V 50.100 C 120.500 50.155 120.545 50.200 120.600 50.200 H 124.500 C 124.600 50.200 124.500 50.100 124.500 50.200 V 58.000 C 124.500 58.100 124.600 58.000 124.500 58.000 H 120.600 C 120.545 58.000 120.500 58.045 120.500 58.100 V 66.100 C 120.500 66.155 120.545 66.200 120.600 66.200 H 124.500 C 124.600 66.200 124.500 66.100 124.500 66.200 V 74.000 C 124.500 74.100 124.600 74.000 124.500 74.000 H 120.600 C 120.545 74.000 120.500 74.045 120.500 74.100 V 82.100 C 120.500 82.155 120.545 82.200 120.600 82.200 H 124.500 C 124.600 82.200 124.500 82.100 124.500 82.200 V 94.100 C 124.500 94.155 124.545 94.200 124.600 94.200" stroke="rgb(0,0,0)" stroke-width="0.20" />
</g>
</svg>